<svg width="30" height="30" viewBox="0 0 30 30" fill="none" xmlns="http://www.w3.org/2000/svg">
<path fill-rule="evenodd" clip-rule="evenodd" d="M27.4393 3.715C27.2109 3.71507 26.9877 3.6474 26.7977 3.52057C26.6078 3.39373 26.4598 3.21342 26.3723 3.00244C26.2849 2.79145 26.262 2.55928 26.3065 2.33527C26.351 2.11127 26.461 1.9055 26.6224 1.74398C26.7839 1.58246 26.9896 1.47246 27.2136 1.42788C27.4376 1.3833 27.6698 1.40614 27.8808 1.49353C28.0918 1.58091 28.2721 1.72891 28.399 1.9188C28.5259 2.10869 28.5936 2.33195 28.5936 2.56033C28.5935 2.86646 28.4718 3.16 28.2554 3.37649C28.0389 3.59299 27.7454 3.71474 27.4393 3.715ZM15.0003 3.715C14.7719 3.71507 14.5486 3.6474 14.3587 3.52057C14.1688 3.39373 14.0208 3.21342 13.9333 3.00244C13.8459 2.79145 13.823 2.55928 13.8675 2.33527C13.912 2.11127 14.0219 1.9055 14.1834 1.74398C14.3449 1.58246 14.5506 1.47246 14.7746 1.42788C14.9986 1.3833 15.2307 1.40614 15.4417 1.49353C15.6527 1.58091 15.8331 1.72891 15.96 1.9188C16.0869 2.10869 16.1546 2.33195 16.1546 2.56033C16.1545 2.86649 16.0329 3.16008 15.8164 3.37659C15.6 3.5931 15.3064 3.71482 15.0003 3.715ZM28.5936 16.1363H26.4937V14.0363H28.5936V16.1363ZM3.50824 16.1363H1.40829V14.0363H3.50824V16.1363ZM2.56126 3.715C2.33288 3.71507 2.10961 3.6474 1.91969 3.52057C1.72976 3.39373 1.58172 3.21342 1.49428 3.00244C1.40683 2.79145 1.38392 2.55928 1.42844 2.33527C1.47295 2.11127 1.58289 1.9055 1.74436 1.74398C1.90582 1.58246 2.11156 1.47246 2.33555 1.42788C2.55953 1.3833 2.79171 1.40614 3.00271 1.49353C3.21371 1.58091 3.39406 1.72891 3.52095 1.9188C3.64784 2.10869 3.71557 2.33195 3.71557 2.56033C3.71539 2.86646 3.59373 3.16 3.3773 3.37649C3.16088 3.59299 2.86738 3.71474 2.56126 3.715ZM27.4393 3.2183e-08C26.883 0.000770844 26.3421 0.18244 25.8981 0.517596C25.4542 0.852753 25.1312 1.32322 24.978 1.858H17.4616C17.3089 1.3229 16.9861 0.852107 16.542 0.51692C16.0978 0.181733 15.5566 0.000409715 15.0001 0.000409715C14.4437 0.000409715 13.9024 0.181733 13.4583 0.51692C13.0141 0.852107 12.6913 1.3229 12.5387 1.858H5.02287C4.85334 1.26406 4.47485 0.751417 3.95716 0.414546C3.43947 0.0776739 2.81746 -0.0607195 2.20577 0.0248715C1.59409 0.110463 1.03395 0.414269 0.628601 0.8803C0.223249 1.34633 0 1.94317 0 2.56083C0 3.17849 0.223249 3.77534 0.628601 4.24137C1.03395 4.7074 1.59409 5.0112 2.20577 5.0968C2.81746 5.18239 3.43947 5.04399 3.95716 4.70712C4.47485 4.37025 4.85334 3.8576 5.02287 3.26367H9.00977C7.20133 4.18512 5.62776 5.50826 4.40961 7.13175C3.19146 8.75524 2.36103 10.636 1.98194 12.63H0.70364C0.61127 12.6299 0.519791 12.648 0.434439 12.6834C0.349088 12.7187 0.271542 12.7705 0.206242 12.8358C0.140943 12.9012 0.0891717 12.9787 0.0538942 13.0641C0.0186167 13.1495 0.000525664 13.241 0.000657225 13.3333V16.8397C0.000745331 17.0261 0.0748165 17.205 0.206613 17.3369C0.33841 17.4688 0.517163 17.5431 0.70364 17.5433H4.21122C4.39773 17.5432 4.57653 17.4689 4.70835 17.337C4.84016 17.2051 4.9142 17.0262 4.9142 16.8397V13.3333C4.91416 13.2411 4.89594 13.1497 4.86058 13.0645C4.82523 12.9793 4.77343 12.9019 4.70815 12.8367C4.64287 12.7715 4.56538 12.7198 4.48011 12.6846C4.39485 12.6493 4.30348 12.6312 4.21122 12.6313H3.41657C3.90107 10.381 5.02783 8.31946 6.66031 6.69659C8.29278 5.07372 10.3609 3.95917 12.614 3.488C12.8008 3.96912 13.1286 4.38256 13.5545 4.67408C13.9803 4.96561 14.4844 5.1216 15.0005 5.1216C15.5165 5.1216 16.0206 4.96561 16.4465 4.67408C16.8723 4.38256 17.2001 3.96912 17.3869 3.488C19.6398 3.95913 21.7077 5.07351 23.3401 6.69612C24.9725 8.31873 26.0993 10.3799 26.584 12.63H25.7894C25.697 12.6299 25.6055 12.648 25.5202 12.6834C25.4348 12.7187 25.3573 12.7705 25.292 12.8358C25.2267 12.9012 25.1749 12.9787 25.1396 13.0641C25.1043 13.1495 25.0862 13.241 25.0864 13.3333V16.8397C25.0864 17.0262 25.1604 17.2051 25.2922 17.337C25.4241 17.4689 25.6029 17.5432 25.7894 17.5433H29.2969C29.4834 17.5432 29.6623 17.4689 29.7941 17.337C29.9259 17.2051 29.9999 17.0262 29.9999 16.8397V13.3333C29.9999 13.2411 29.9817 13.1497 29.9463 13.0645C29.911 12.9793 29.8592 12.9019 29.7939 12.8367C29.7286 12.7715 29.6511 12.7198 29.5658 12.6846C29.4806 12.6493 29.3892 12.6312 29.2969 12.6313H28.0183C27.5346 10.027 26.2741 7.62998 24.4027 5.75533C23.4057 4.74804 22.2538 3.90694 20.9908 3.264H24.978C25.1089 3.72175 25.3648 4.13396 25.7169 4.45431C26.0691 4.77467 26.5036 4.99048 26.9717 5.07752C27.4397 5.16455 27.9228 5.11936 28.3666 4.94701C28.8103 4.77467 29.1973 4.482 29.4839 4.10187C29.7706 3.72175 29.9455 3.26923 29.9892 2.79515C30.0329 2.32107 29.9435 1.84421 29.7311 1.41812C29.5187 0.992039 29.1917 0.633612 28.7869 0.383102C28.3821 0.132593 27.9154 -7.544e-05 27.4393 3.2183e-08ZM15.0003 17.2333C14.7903 17.2333 14.5849 17.171 14.4103 17.0544C14.2357 16.9377 14.0995 16.7718 14.0192 16.5777C13.9388 16.3837 13.9177 16.1702 13.9587 15.9641C13.9997 15.7581 14.1008 15.5689 14.2494 15.4204C14.3979 15.2719 14.5871 15.1707 14.7931 15.1297C14.9991 15.0888 15.2126 15.1098 15.4067 15.1902C15.6007 15.2706 15.7666 15.4067 15.8833 15.5813C16 15.756 16.0623 15.9613 16.0623 16.1713C16.0622 16.453 15.9503 16.723 15.7511 16.9222C15.552 17.1213 15.2819 17.2332 15.0003 17.2333ZM15.0003 13.704C15.4881 13.7043 15.9648 13.8493 16.3702 14.1205C16.7756 14.3918 17.0915 14.7771 17.278 15.2279C17.4644 15.6786 17.513 16.1745 17.4176 16.6529C17.3223 17.1313 17.0872 17.5707 16.7422 17.9155C16.3972 18.2603 15.9577 18.495 15.4792 18.5901C15.0008 18.6851 14.5049 18.6362 14.0543 18.4494C13.6037 18.2627 13.2186 17.9465 12.9476 17.5409C12.6766 17.1353 12.532 16.6585 12.532 16.1707C12.533 15.5165 12.7934 14.8894 13.2561 14.427C13.7189 13.9645 14.3461 13.7045 15.0003 13.704ZM17.4952 22.8567H12.5057L9.94108 17.135L14.297 9.09533V12.2233C14.2949 12.317 14.3116 12.4101 14.346 12.4972C14.3805 12.5842 14.4319 12.6636 14.4974 12.7305C14.5629 12.7975 14.6411 12.8507 14.7274 12.887C14.8138 12.9233 14.9065 12.942 15.0001 12.942C15.0938 12.942 15.1865 12.9233 15.2728 12.887C15.3591 12.8507 15.4373 12.7975 15.5028 12.7305C15.5683 12.6636 15.6198 12.5842 15.6542 12.4972C15.6886 12.4101 15.7053 12.317 15.7033 12.2233V9.09533L20.0598 17.135L17.4952 22.8567ZM19.2669 28.594H10.7337L12.5204 24.2633H17.4799L19.2669 28.594ZM21.4611 16.77C21.5127 16.865 21.5416 16.9707 21.5457 17.0787C21.5498 17.1868 21.529 17.2943 21.4848 17.393L18.7155 23.5707L20.9668 29.029C21.0109 29.1358 21.028 29.2518 21.0166 29.3668C21.0052 29.4818 20.9656 29.5922 20.9013 29.6882C20.837 29.7842 20.7501 29.8629 20.6481 29.9173C20.5462 29.9717 20.4324 30.0001 20.3168 30H9.68376C9.56825 30.0001 9.4545 29.9717 9.35259 29.9173C9.25068 29.8629 9.16374 29.7843 9.09947 29.6883C9.0352 29.5923 8.99558 29.482 8.98412 29.367C8.97266 29.2521 8.98972 29.1361 9.03377 29.0293L11.285 23.571L8.51578 17.393C8.47155 17.2943 8.45065 17.1868 8.45469 17.0788C8.45874 16.9707 8.48763 16.8651 8.53912 16.77L14.3823 5.98767C14.4427 5.87639 14.532 5.78348 14.6408 5.71873C14.7496 5.65399 14.8739 5.61981 15.0005 5.61981C15.1271 5.61981 15.2513 5.65399 15.3601 5.71873C15.4689 5.78348 15.5582 5.87639 15.6186 5.98767L21.4611 16.77Z" fill="black"/>
</svg>
