<svg width="30" height="30" viewBox="0 0 30 30" fill="none" xmlns="http://www.w3.org/2000/svg">
<path fill-rule="evenodd" clip-rule="evenodd" d="M15 0C6.721 0 0 6.721 0 15C0 23.279 6.721 30 15 30C23.279 30 30 23.279 30 15C30 6.721 23.279 0 15 0ZM19.404 21C19.001 22.902 18.409 24.544 17.679 25.793C16.906 27.116 16.032 28 15 28C13.968 28 13.094 27.116 12.321 25.793C11.591 24.544 10.999 22.902 10.596 21H19.404ZM26.534 21H21.438C20.983 23.317 20.276 25.314 19.406 26.802C19.294 26.994 19.179 27.177 19.061 27.352C22.3 26.287 24.978 23.982 26.534 21ZM8.562 21H3.466C5.022 23.982 7.7 26.286 10.939 27.352C10.821 27.177 10.706 26.994 10.594 26.802C9.724 25.314 9.017 23.317 8.562 21ZM8.243 11H2.628C2.22 12.26 2 13.604 2 15C2 16.396 2.22 17.74 2.628 19H8.243C8.085 17.729 8 16.387 8 15C8 13.613 8.085 12.271 8.243 11ZM19.745 11C19.911 12.264 20 13.607 20 15C20 16.393 19.911 17.736 19.745 19H10.255C10.089 17.736 10 16.393 10 15C10 13.607 10.089 12.264 10.255 11H19.745ZM27.372 11H21.757C21.915 12.271 22 13.613 22 15C22 16.387 21.915 17.729 21.757 19H27.372C27.78 17.74 28 16.396 28 15C28 13.604 27.78 12.26 27.372 11ZM10.939 2.64801C7.7 3.71301 5.022 6.018 3.466 9H8.562C9.017 6.683 9.724 4.686 10.594 3.198C10.706 3.007 10.821 2.82301 10.939 2.64801ZM15 2C16.032 2 16.906 2.884 17.679 4.207C18.409 5.456 19.001 7.098 19.404 9H10.596C10.999 7.098 11.591 5.456 12.321 4.207C13.094 2.884 13.968 2 15 2ZM19.061 2.64801C19.179 2.82301 19.294 3.007 19.406 3.198C20.276 4.686 20.983 6.683 21.438 9H26.534C24.978 6.018 22.3 3.71401 19.061 2.64801Z" fill="black"/>
</svg>
